<svg width="1280" height="360" viewBox="0 0 1280 360" fill="none" xmlns="http://www.w3.org/2000/svg" role="img" aria-labelledby="title desc">
  <title id="title">Watch Together - CouchSync Stack</title>
  <desc id="desc">A dark GitHub README banner for Watch Together, a private co-watch stack for local movies.</desc>
  <defs>
    <linearGradient id="bg" x1="0" y1="0" x2="1280" y2="360" gradientUnits="userSpaceOnUse">
      <stop stop-color="#090D14"/>
      <stop offset="0.58" stop-color="#101826"/>
      <stop offset="1" stop-color="#15101F"/>
    </linearGradient>
    <linearGradient id="accent" x1="134" y1="252" x2="600" y2="252" gradientUnits="userSpaceOnUse">
      <stop stop-color="#22C55E"/>
      <stop offset="0.45" stop-color="#38BDF8"/>
      <stop offset="1" stop-color="#A855F7"/>
    </linearGradient>
    <linearGradient id="screen" x1="768" y1="76" x2="1110" y2="270" gradientUnits="userSpaceOnUse">
      <stop stop-color="#1F2937"/>
      <stop offset="1" stop-color="#070A10"/>
    </linearGradient>
    <filter id="glow" x="-20%" y="-40%" width="140%" height="180%" color-interpolation-filters="sRGB">
      <feGaussianBlur stdDeviation="16" result="blur"/>
      <feColorMatrix in="blur" type="matrix" values="0 0 0 0 0.141 0 0 0 0 0.827 0 0 0 0 0.482 0 0 0 0.45 0"/>
      <feBlend in2="SourceGraphic" mode="screen"/>
    </filter>
    <pattern id="grid" width="38" height="38" patternUnits="userSpaceOnUse">
      <path d="M 38 0 L 0 0 0 38" stroke="#263244" stroke-width="1" opacity="0.45"/>
    </pattern>
  </defs>

  <rect width="1280" height="360" rx="24" fill="url(#bg)"/>
  <rect width="1280" height="360" rx="24" fill="url(#grid)" opacity="0.34"/>
  <path d="M0 296C148 260 234 290 364 260C516 225 632 286 788 238C950 188 1058 214 1280 154V360H0V296Z" fill="#07131C" opacity="0.7"/>

  <g filter="url(#glow)">
    <path d="M134 252H596" stroke="url(#accent)" stroke-width="6" stroke-linecap="round" stroke-dasharray="1 18"/>
  </g>

  <g transform="translate(96 74)">
    <rect x="0" y="0" width="92" height="92" rx="22" fill="#111827" stroke="#334155" stroke-width="2"/>
    <path d="M26 31C26 25.477 30.477 21 36 21H58C63.523 21 68 25.477 68 31V62C68 67.523 63.523 72 58 72H36C30.477 72 26 67.523 26 62V31Z" fill="#0B1220" stroke="#38BDF8" stroke-width="3"/>
    <path d="M39 35L57 46.5L39 58V35Z" fill="#22C55E"/>
    <circle cx="67" cy="25" r="8" fill="#A855F7"/>
  </g>

  <text x="214" y="108" fill="#F8FAFC" font-family="Inter, ui-sans-serif, system-ui, -apple-system, BlinkMacSystemFont, Segoe UI, sans-serif" font-size="58" font-weight="800" letter-spacing="0">Watch Together</text>
  <text x="214" y="164" fill="#38BDF8" font-family="Inter, ui-sans-serif, system-ui, -apple-system, BlinkMacSystemFont, Segoe UI, sans-serif" font-size="38" font-weight="800" letter-spacing="0">CouchSync Stack</text>
  <text x="216" y="207" fill="#CBD5E1" font-family="Inter, ui-sans-serif, system-ui, -apple-system, BlinkMacSystemFont, Segoe UI, sans-serif" font-size="24" font-weight="500" letter-spacing="0">Private watch rooms. No upload. Live sync.</text>

  <g transform="translate(216 236)">
    <rect width="126" height="34" rx="17" fill="#0B2A1A" stroke="#22C55E" stroke-width="1"/>
    <text x="20" y="23" fill="#86EFAC" font-family="Inter, ui-sans-serif, system-ui" font-size="15" font-weight="800">NO UPLOAD</text>
    <rect x="142" width="118" height="34" rx="17" fill="#08243A" stroke="#38BDF8" stroke-width="1"/>
    <text x="164" y="23" fill="#BAE6FD" font-family="Inter, ui-sans-serif, system-ui" font-size="15" font-weight="800">LIVE SYNC</text>
    <rect x="276" width="120" height="34" rx="17" fill="#271039" stroke="#A855F7" stroke-width="1"/>
    <text x="297" y="23" fill="#E9D5FF" font-family="Inter, ui-sans-serif, system-ui" font-size="15" font-weight="800">BETA READY</text>
  </g>

  <g transform="translate(742 66)">
    <rect x="0" y="0" width="424" height="228" rx="24" fill="url(#screen)" stroke="#334155" stroke-width="2"/>
    <rect x="24" y="25" width="376" height="178" rx="14" fill="#05070D" stroke="#1F2937"/>
    <rect x="47" y="48" width="72" height="44" rx="22" fill="#111827" stroke="#22C55E"/>
    <text x="72" y="76" fill="#D1FAE5" font-family="Inter, ui-sans-serif, system-ui" font-size="16" font-weight="900">H</text>
    <rect x="138" y="48" width="72" height="44" rx="22" fill="#111827" stroke="#38BDF8"/>
    <text x="163" y="76" fill="#E0F2FE" font-family="Inter, ui-sans-serif, system-ui" font-size="16" font-weight="900">G</text>
    <rect x="229" y="48" width="72" height="44" rx="22" fill="#111827" stroke="#A855F7"/>
    <text x="254" y="76" fill="#F3E8FF" font-family="Inter, ui-sans-serif, system-ui" font-size="16" font-weight="900">G</text>
    <path d="M74 130H350" stroke="#334155" stroke-width="8" stroke-linecap="round"/>
    <circle cx="228" cy="130" r="11" fill="#F97316"/>
    <path d="M74 162H350" stroke="#1F2937" stroke-width="8" stroke-linecap="round"/>
    <path d="M74 162H228" stroke="#38BDF8" stroke-width="8" stroke-linecap="round"/>
    <text x="23" y="244" fill="#64748B" font-family="Inter, ui-sans-serif, system-ui" font-size="15" font-weight="700">React + Spring Boot + Redis + LiveKit</text>
  </g>
</svg>
